:FULLY-SPECIFIED
:DEGREES
844
root 3.67877 16.3404 -3.04439 101.164 -93.2127 -95.8534
lowerback 2.51429 -0.138149 -0.436334
upperback 1.46039 -0.208764 1.05271
thorax 0.0918917 -0.118341 1.32747
lowerneck -17.4135 0.859451 -0.00875604
upperneck 16.6707 1.52744 -1.98549
head 8.04988 0.497645 -0.481933
rclavicle -4.72114e-015 -1.27222e-014
rhumerus -31.7648 -5.84256 -80.7928
rradius 20.805
rwrist 30.7873
rhand -25.2127 1.93312
rfingers 7.12502
rthumb 1.30609 -28.0426
lclavicle -4.72114e-015 -1.27222e-014
lhumerus -24.734 2.71412 89.6226
lradius 22.3854
lwrist -14.2912
lhand -27.1532 1.4761
lfingers 7.12502
lthumb -0.56809 31.4551
rfemur -28.3953 12.2314 15.2198
rtibia 23.5401
rfoot -5.74954 -16.0982
rtoes -17.8444
lfemur 6.69411 -12.4266 -30.0841
ltibia 9.30622
lfoot -16.6517 8.0721
ltoes -10.8106
845
root 3.66528 16.3405 -3.06942 104.819 -93.106 -99.433
lowerback 2.42075 -0.204789 -0.355083
upperback 1.39838 -0.295027 1.13374
thorax 0.0830323 -0.160814 1.36668
lowerneck -17.3904 0.928009 0.099055
upperneck 16.6816 1.63371 -2.19211
head 8.05363 0.533216 -0.556
rclavicle -2.33572e-015 -1.43125e-014
rhumerus -31.9051 -5.96055 -80.7006
rradius 20.6416
rwrist 31.2495
rhand -25.5155 1.7362
rfingers 7.12502
rthumb 1.01372 -28.2411
lclavicle -2.33572e-015 -1.43125e-014
lhumerus -24.8812 3.26935 89.5328
lradius 21.9393
lwrist -14.5499
lhand -27.0008 1.52437
lfingers 7.12502
lthumb -0.420899 31.5037
rfemur -28.2178 12.1286 15.5224
rtibia 23.8132
rfoot -4.93512 -15.872
rtoes -16.5269
lfemur 6.75425 -12.6135 -29.9288
ltibia 9.95704
lfoot -16.8391 8.18716
ltoes -12.0733
846
root 3.65371 16.339 -3.09475 108.412 -92.9842 -102.971
lowerback 2.36188 -0.224129 -0.172818
upperback 1.3525 -0.316604 1.15525
thorax 0.0686652 -0.170294 1.28676
lowerneck -17.4011 0.941648 0.159834
upperneck 16.6785 1.64309 -2.2236
head 8.05536 0.538428 -0.575303
rclavicle 1.04362e-014 -1.27222e-014
rhumerus -32.038 -6.3807 -80.557
rradius 20.5333
rwrist 31.4347
rhand -25.5923 1.99708
rfingers 7.12502
rthumb 0.939523 -27.9806
lclavicle 1.04362e-014 -1.27222e-014
lhumerus -24.99 3.71295 89.3962
lradius 21.4558
lwrist -14.924
lhand -27.1276 1.68857
lfingers 7.12502
lthumb -0.543288 31.6676
rfemur -28.0383 11.7933 15.975
rtibia 24.2421
rfoot -4.58557 -15.2075
rtoes -15.4341
lfemur 6.72453 -12.7744 -29.7528
ltibia 10.8519
lfoot -17.113 8.2421
ltoes -12.6645
847
root 3.64132 16.3413 -3.12169 111.154 -92.89 -105.627
lowerback 2.24139 -0.24813 -0.092014
upperback 1.30484 -0.34677 1.21107
thorax 0.087886 -0.184883 1.29878
lowerneck -17.2743 0.980412 0.147456
upperneck 16.5485 1.7007 -2.2448
head 7.9906 0.565197 -0.573639
rclavicle -3.18055e-015 1.43125e-014
rhumerus -32.1359 -6.64084 -80.4464
rradius 20.4053
rwrist 31.5455
rhand -25.6907 1.94505
rfingers 7.12502
rthumb 0.8445 -28.033
lclavicle -3.18055e-015 1.43125e-014
lhumerus -25.1491 4.28131 89.2762
lradius 20.9948
lwrist -15.5
lhand -27.0437 1.67743
lfingers 7.12502
lthumb -0.462291 31.6567
rfemur -27.8927 11.4172 16.4292
rtibia 24.7651
rfoot -4.77075 -14.3195
rtoes -14.2431
lfemur 6.58663 -12.7283 -29.5634
ltibia 11.8381
lfoot -17.2512 8.16496
ltoes -13.7128
848
root 3.62791 16.3481 -3.14931 114.599 -92.8007 -108.929
lowerback 2.02337 -0.30868 -0.0166608
upperback 1.26874 -0.42684 1.27882
thorax 0.174797 -0.224768 1.32628
lowerneck -17.2479 1.02567 0.0987993
upperneck 16.4819 1.77042 -2.22489
head 7.9641 0.598296 -0.550768
rclavicle -2.98177e-016 -6.36111e-015
rhumerus -32.1714 -6.7418 -80.3953
rradius 20.2913
rwrist 31.7184
rhand -25.7701 1.94646
rfingers 7.12502
rthumb 0.767811 -28.0319
lclavicle -2.98177e-016 -6.36111e-015
lhumerus -25.3072 4.84807 89.1401
lradius 20.5891
lwrist -15.9227
lhand -27.0604 1.71305
lfingers 7.12502
lthumb -0.478412 31.6923
rfemur -27.8268 10.8901 16.9172
rtibia 25.3012
rfoot -5.07277 -13.5991
rtoes -13.5792
lfemur 6.36559 -12.8329 -29.357
ltibia 12.8767
lfoot -17.4051 8.15317
ltoes -14.7582
849
root 3.61433 16.3559 -3.17733 115.776 -92.8154 -109.96
lowerback 1.84173 -0.308704 -0.0410199
upperback 1.1944 -0.426317 1.27506
thorax 0.200502 -0.223867 1.33516
lowerneck -17.1875 1.05397 0.0523065
upperneck 16.4761 1.81287 -2.18748
head 7.95135 0.619588 -0.525915
rclavicle -7.60351e-015 1.74931e-014
rhumerus -32.2912 -7.08519 -80.2572
rradius 20.1727
rwrist 32.034
rhand -25.8985 1.9022
rfingers 7.12502
rthumb 0.643749 -28.0766
lclavicle -7.60351e-015 1.74931e-014
lhumerus -25.5136 5.36699 88.9882
lradius 20.1308
lwrist -16.3793
lhand -26.9575 1.70671
lfingers 7.12502
lthumb -0.379036 31.6861
rfemur -27.7771 10.6378 17.1679
rtibia 25.7989
rfoot -5.24044 -13.3389
rtoes -12.7272
lfemur 6.02887 -12.7572 -29.2682
ltibia 14.0748
lfoot -17.5215 8.08345
ltoes -16.1748
850
root 3.60008 16.3679 -3.20554 116.703 -92.9011 -110.748
lowerback 1.6003 -0.338107 -0.146627
upperback 1.17855 -0.467223 1.26499
thorax 0.321191 -0.244802 1.38307
lowerneck -17.2646 1.07684 0.0390012
upperneck 16.508 1.85829 -2.23461
head 7.97649 0.634515 -0.533809
rclavicle -9.0447e-015 7.15625e-015
rhumerus -32.2827 -7.40261 -80.146
rradius 20.0237
rwrist 32.3623
rhand -25.8633 2.06977
rfingers 7.12502
rthumb 0.677758 -27.9089
lclavicle -9.0447e-015 7.15625e-015
lhumerus -25.638 5.96147 88.7981
lradius 19.6897
lwrist -16.8605
lhand -26.813 1.6194
lfingers 7.12502
lthumb -0.239498 31.599
rfemur -27.6172 10.4618 17.3205
rtibia 26.2026
rfoot -5.50736 -13.2111
rtoes -11.9642
lfemur 5.6837 -12.5077 -29.2011
ltibia 15.2787
lfoot -17.5217 7.69394
ltoes -17.6724
851
root 3.5855 16.3733 -3.23407 118.683 -92.8905 -112.625
lowerback 1.37295 -0.335095 -0.064703
upperback 1.14874 -0.462287 1.22385
thorax 0.416864 -0.241446 1.29343
lowerneck -17.2855 1.06355 0.0495368
upperneck 16.5707 1.83309 -2.20787
head 8.00053 0.624955 -0.529616
rclavicle -5.86415e-015 7.95139e-015
rhumerus -32.3701 -7.74281 -80.1167
rradius 19.9354
rwrist 32.6474
rhand -26.0185 1.87295
rfingers 7.12502
rthumb 0.527911 -28.1061
lclavicle -5.86415e-015 7.95139e-015
lhumerus -25.8285 6.17142 88.6678
lradius 19.3182
lwrist -17.0567
lhand -26.6267 1.59327
lfingers 7.12502
lthumb -0.0595584 31.573
rfemur -27.3525 10.3619 17.5742
rtibia 26.4727
rfoot -5.73912 -13.0314
rtoes -11.081
lfemur 5.32408 -12.2687 -29.0143
ltibia 16.5922
lfoot -17.543 7.22706
ltoes -18.6065
852
root 3.57045 16.3897 -3.26421 120.319 -92.9083 -114.166
lowerback 1.21508 -0.354479 -0.0772295
upperback 1.09614 -0.487847 1.22773
thorax 0.452169 -0.253895 1.30373
lowerneck -17.3524 1.08577 0.0278953
upperneck 16.6993 1.88353 -2.2705
head 8.05648 0.638373 -0.5409
rclavicle -1.88845e-015 -1.82882e-014
rhumerus -32.4545 -7.96166 -80.0477
rradius 19.8525
rwrist 32.6288
rhand -25.9888 2.01614
rfingers 7.12502
rthumb 0.556609 -27.9629
lclavicle -1.88845e-015 -1.82882e-014
lhumerus -26.0627 6.60177 88.5251
lradius 18.97
lwrist -17.4934
lhand -26.455 1.60115
lfingers 7.12502
lthumb 0.106335 31.5809
rfemur -26.9616 10.3172 17.8028
rtibia 26.5918
rfoot -6.03105 -12.9075
rtoes -10.0249
lfemur 4.84903 -11.8805 -28.8067
ltibia 18.0569
lfoot -17.4078 6.70281
ltoes -19.9882
853
root 3.55649 16.4038 -3.29305 122.75 -92.8582 -116.522
lowerback 1.05463 -0.386061 -0.00334441
upperback 1.03365 -0.529345 1.25138
thorax 0.478616 -0.273907 1.28586
lowerneck -17.2548 1.11196 -0.0242171
upperneck 16.7141 1.93188 -2.27386
head 8.04454 0.657493 -0.52817
rclavicle -1.05356e-014 2.38542e-015
rhumerus -32.5847 -7.85012 -80.1012
rradius 19.8318
rwrist 32.698
rhand -26.0249 1.8945
rfingers 7.12502
rthumb 0.521683 -28.0846
lclavicle -1.05356e-014 2.38542e-015
lhumerus -26.3278 6.98028 88.3805
lradius 18.6325
lwrist -17.8653
lhand -26.2071 1.76757
lfingers 7.12502
lthumb 0.345741 31.747
rfemur -26.4756 10.3485 18.1023
rtibia 26.5254
rfoot -6.19063 -12.9143
rtoes -9.38678
lfemur 4.286 -11.4747 -28.4971
ltibia 19.7873
lfoot -17.3694 6.0622
ltoes -20.9208
854
root 3.54285 16.4262 -3.32251 125.356 -92.8108 -119.091
lowerback 0.930142 -0.348695 0.160074
upperback 1.01047 -0.478632 1.20479
thorax 0.521726 -0.247151 1.14539
lowerneck -17.338 1.06957 -0.0125452
upperneck 16.8651 1.8676 -2.24346
head 8.10859 0.628157 -0.527474
rclavicle 1.09332e-015 9.54166e-015
rhumerus -32.7337 -8.15383 -80.1019
rradius 19.8548
rwrist 32.8312
rhand -26.0071 1.83165
rfingers 7.12502
rthumb 0.538902 -28.1474
lclavicle 1.09332e-015 9.54166e-015
lhumerus -26.4761 7.24152 88.2122
lradius 18.2793
lwrist -18.17
lhand -25.8188 1.82656
lfingers 7.12502
lthumb 0.720752 31.8051
rfemur -25.8897 10.3609 18.421
rtibia 26.3573
rfoot -6.34968 -12.9419
rtoes -8.45451
lfemur 3.62844 -10.8826 -28.1451
ltibia 21.6216
lfoot -17.1283 5.2762
ltoes -22.0616
